<?xml version="1.0" encoding="utf-8" standalone="no"?>
<!DOCTYPE svg PUBLIC "-//W3C//DTD SVG 1.1//EN"
  "http://www.w3.org/Graphics/SVG/1.1/DTD/svg11.dtd">
<svg xmlns:xlink="http://www.w3.org/1999/xlink" width="454.323084pt" height="250.479472pt" viewBox="0 0 454.323084 250.479472" xmlns="http://www.w3.org/2000/svg" version="1.1">
 <metadata>
  <rdf:RDF xmlns:dc="http://purl.org/dc/elements/1.1/" xmlns:cc="http://creativecommons.org/ns#" xmlns:rdf="http://www.w3.org/1999/02/22-rdf-syntax-ns#">
   <cc:Work>
    <dc:type rdf:resource="http://purl.org/dc/dcmitype/StillImage"/>
    <dc:date>2024-04-03T13:38:40.881980</dc:date>
    <dc:format>image/svg+xml</dc:format>
    <dc:creator>
     <cc:Agent>
      <dc:title>Matplotlib v3.8.3, https://matplotlib.org/</dc:title>
     </cc:Agent>
    </dc:creator>
   </cc:Work>
  </rdf:RDF>
 </metadata>
 <defs>
  <style type="text/css">*{stroke-linejoin: round; stroke-linecap: butt}</style>
 </defs>
 <g id="figure_1">
  <g id="patch_1">
   <path d="M 0 250.479472 
L 454.323084 250.479472 
L 454.323084 0 
L 0 0 
z
"/>
  </g>
  <g id="axes_1">
   <g id="patch_2">
    <path d="M 20.5625 226.601347 
L 207.674592 226.601347 
L 207.674592 7.2 
L 20.5625 7.2 
z
"/>
   </g>
   <g id="matplotlib.axis_1">
    <g id="xtick_1">
     <g id="line2d_1">
      <path d="M 114.118546 226.601347 
L 114.118546 7.2 
" clip-path="url(#p85bd35efb7)" style="fill: none; stroke: #ffffff; stroke-width: 0.8; stroke-linecap: square"/>
     </g>
     <g id="line2d_2">
      <defs>
       <path id="m413d625baa" d="M 0 0 
L 0 3.5 
" style="stroke: #ffffff; stroke-width: 0.8"/>
      </defs>
      <g>
       <use xlink:href="#m413d625baa" x="114.118546" y="226.601347" style="fill: #ffffff; stroke: #ffffff; stroke-width: 0.8"/>
      </g>
     </g>
     <g id="text_1">
      <!-- 0 -->
      <g style="fill: #ffffff" transform="translate(110.937296 241.199784) scale(0.1 -0.1)">
       <defs>
        <path id="DejaVuSans-30" d="M 2034 4250 
Q 1547 4250 1301 3770 
Q 1056 3291 1056 2328 
Q 1056 1369 1301 889 
Q 1547 409 2034 409 
Q 2525 409 2770 889 
Q 3016 1369 3016 2328 
Q 3016 3291 2770 3770 
Q 2525 4250 2034 4250 
z
M 2034 4750 
Q 2819 4750 3233 4129 
Q 3647 3509 3647 2328 
Q 3647 1150 3233 529 
Q 2819 -91 2034 -91 
Q 1250 -91 836 529 
Q 422 1150 422 2328 
Q 422 3509 836 4129 
Q 1250 4750 2034 4750 
z
" transform="scale(0.015625)"/>
       </defs>
       <use xlink:href="#DejaVuSans-30"/>
      </g>
     </g>
    </g>
   </g>
   <g id="matplotlib.axis_2">
    <g id="ytick_1">
     <g id="line2d_3">
      <path d="M 20.5625 116.900673 
L 207.674592 116.900673 
" clip-path="url(#p85bd35efb7)" style="fill: none; stroke: #ffffff; stroke-width: 0.8; stroke-linecap: square"/>
     </g>
     <g id="line2d_4">
      <defs>
       <path id="m6bd027799c" d="M 0 0 
L -3.5 0 
" style="stroke: #ffffff; stroke-width: 0.8"/>
      </defs>
      <g>
       <use xlink:href="#m6bd027799c" x="20.5625" y="116.900673" style="fill: #ffffff; stroke: #ffffff; stroke-width: 0.8"/>
      </g>
     </g>
     <g id="text_2">
      <!-- 0 -->
      <g style="fill: #ffffff" transform="translate(7.2 120.699892) scale(0.1 -0.1)">
       <use xlink:href="#DejaVuSans-30"/>
      </g>
     </g>
    </g>
   </g>
   <g id="line2d_5">
    <path d="M 29.067595 216.628558 
L 63.087975 216.628558 
L 97.108356 216.628558 
L 131.128736 216.628558 
L 165.149117 216.628558 
L 199.169497 216.628558 
" clip-path="url(#p85bd35efb7)" style="fill: none; stroke: #f23c3c; stroke-width: 3; stroke-linecap: square"/>
   </g>
   <g id="line2d_6">
    <path d="M 199.169497 216.628558 
L 198.868432 195.102389 
L 198.567366 173.576219 
L 198.266301 152.050049 
L 197.965236 130.523879 
L 197.66417 108.997709 
" clip-path="url(#p85bd35efb7)" style="fill: none; stroke: #f2813c; stroke-width: 3; stroke-linecap: square"/>
   </g>
   <g id="line2d_7">
    <path d="M 197.66417 108.997709 
L 190.814935 107.898821 
L 184.718362 104.602155 
L 179.374453 99.107713 
L 174.783207 91.415495 
L 170.944624 81.525499 
" clip-path="url(#p85bd35efb7)" style="fill: none; stroke: #f2c53c; stroke-width: 3; stroke-linecap: square"/>
   </g>
   <g id="line2d_8">
    <path d="M 170.944624 81.525499 
L 168.15977 70.310816 
L 166.729709 58.644535 
L 166.654443 46.526657 
L 167.933971 33.95718 
L 170.568292 20.936105 
" clip-path="url(#p85bd35efb7)" style="fill: none; stroke: #a7f23c; stroke-width: 3; stroke-linecap: square"/>
   </g>
   <g id="line2d_9">
    <path d="M 170.568292 20.936105 
L 167.33184 20.183442 
L 164.095388 19.430778 
L 160.858936 18.678115 
L 157.622484 17.925452 
L 154.386032 17.172788 
" clip-path="url(#p85bd35efb7)" style="fill: none; stroke: #3cf2d2; stroke-width: 3; stroke-linecap: square"/>
   </g>
   <g id="line2d_10">
    <path d="M 154.386032 17.172788 
L 151.75171 26.972464 
L 149.267921 34.995855 
L 146.934665 41.24296 
L 144.751942 45.71378 
L 142.719751 48.408315 
" clip-path="url(#p85bd35efb7)" style="fill: none; stroke: #3c96f2; stroke-width: 3; stroke-linecap: square"/>
   </g>
   <g id="line2d_11">
    <path d="M 142.719751 48.408315 
L 140.010163 50.034067 
L 135.795249 51.298542 
L 130.075008 52.201738 
L 122.84944 52.743655 
L 114.118546 52.924294 
" clip-path="url(#p85bd35efb7)" style="fill: none; stroke: #8d3cf2; stroke-width: 3; stroke-linecap: square"/>
   </g>
   <g id="line2d_12">
    <path d="M 114.118546 52.924294 
L 105.387652 52.743655 
L 98.162084 52.201738 
L 92.441843 51.298542 
L 88.226929 50.034067 
L 85.517341 48.408315 
" clip-path="url(#p85bd35efb7)" style="fill: none; stroke: #f23c3c; stroke-width: 3; stroke-linecap: square"/>
   </g>
   <g id="line2d_13">
    <path d="M 85.517341 48.408315 
L 83.48515 45.71378 
L 81.302427 41.24296 
L 78.969171 34.995855 
L 76.485382 26.972464 
L 73.85106 17.172788 
" clip-path="url(#p85bd35efb7)" style="fill: none; stroke: #f2813c; stroke-width: 3; stroke-linecap: square"/>
   </g>
   <g id="line2d_14">
    <path d="M 73.85106 17.172788 
L 70.614608 17.925452 
L 67.378156 18.678115 
L 64.141704 19.430778 
L 60.905252 20.183442 
L 57.6688 20.936105 
" clip-path="url(#p85bd35efb7)" style="fill: none; stroke: #f2c53c; stroke-width: 3; stroke-linecap: square"/>
   </g>
   <g id="line2d_15">
    <path d="M 57.6688 20.936105 
L 60.303121 33.95718 
L 61.582649 46.526657 
L 61.507383 58.644535 
L 60.077322 70.310816 
L 57.292468 81.525499 
" clip-path="url(#p85bd35efb7)" style="fill: none; stroke: #a7f23c; stroke-width: 3; stroke-linecap: square"/>
   </g>
   <g id="line2d_16">
    <path d="M 57.292468 81.525499 
L 53.453885 91.415495 
L 48.862639 99.107713 
L 43.51873 104.602155 
L 37.422158 107.898821 
L 30.572922 108.997709 
" clip-path="url(#p85bd35efb7)" style="fill: none; stroke: #3cf2d2; stroke-width: 3; stroke-linecap: square"/>
   </g>
   <g id="line2d_17">
    <path d="M 30.572922 108.997709 
L 30.271856 130.523879 
L 29.970791 152.050049 
L 29.669726 173.576219 
L 29.36866 195.102389 
L 29.067595 216.628558 
" clip-path="url(#p85bd35efb7)" style="fill: none; stroke: #3c96f2; stroke-width: 3; stroke-linecap: square"/>
   </g>
   <g id="patch_3">
    <path d="M 20.5625 226.601347 
L 20.5625 7.2 
" style="fill: none; stroke: #ffffff; stroke-width: 0.8; stroke-linejoin: miter; stroke-linecap: square"/>
   </g>
   <g id="patch_4">
    <path d="M 207.674592 226.601347 
L 207.674592 7.2 
" style="fill: none; stroke: #ffffff; stroke-width: 0.8; stroke-linejoin: miter; stroke-linecap: square"/>
   </g>
   <g id="patch_5">
    <path d="M 20.5625 226.601347 
L 207.674592 226.601347 
" style="fill: none; stroke: #ffffff; stroke-width: 0.8; stroke-linejoin: miter; stroke-linecap: square"/>
   </g>
   <g id="patch_6">
    <path d="M 20.5625 7.2 
L 207.674592 7.2 
" style="fill: none; stroke: #ffffff; stroke-width: 0.8; stroke-linejoin: miter; stroke-linecap: square"/>
   </g>
   <g id="text_3">
    <!-- front -->
    <g style="fill: #ffffff" transform="translate(114.118546 116.900673) scale(0.1 -0.1)">
     <defs>
      <path id="DejaVuSans-66" d="M 2375 4863 
L 2375 4384 
L 1825 4384 
Q 1516 4384 1395 4259 
Q 1275 4134 1275 3809 
L 1275 3500 
L 2222 3500 
L 2222 3053 
L 1275 3053 
L 1275 0 
L 697 0 
L 697 3053 
L 147 3053 
L 147 3500 
L 697 3500 
L 697 3744 
Q 697 4328 969 4595 
Q 1241 4863 1831 4863 
L 2375 4863 
z
" transform="scale(0.015625)"/>
      <path id="DejaVuSans-72" d="M 2631 2963 
Q 2534 3019 2420 3045 
Q 2306 3072 2169 3072 
Q 1681 3072 1420 2755 
Q 1159 2438 1159 1844 
L 1159 0 
L 581 0 
L 581 3500 
L 1159 3500 
L 1159 2956 
Q 1341 3275 1631 3429 
Q 1922 3584 2338 3584 
Q 2397 3584 2469 3576 
Q 2541 3569 2628 3553 
L 2631 2963 
z
" transform="scale(0.015625)"/>
      <path id="DejaVuSans-6f" d="M 1959 3097 
Q 1497 3097 1228 2736 
Q 959 2375 959 1747 
Q 959 1119 1226 758 
Q 1494 397 1959 397 
Q 2419 397 2687 759 
Q 2956 1122 2956 1747 
Q 2956 2369 2687 2733 
Q 2419 3097 1959 3097 
z
M 1959 3584 
Q 2709 3584 3137 3096 
Q 3566 2609 3566 1747 
Q 3566 888 3137 398 
Q 2709 -91 1959 -91 
Q 1206 -91 779 398 
Q 353 888 353 1747 
Q 353 2609 779 3096 
Q 1206 3584 1959 3584 
z
" transform="scale(0.015625)"/>
      <path id="DejaVuSans-6e" d="M 3513 2113 
L 3513 0 
L 2938 0 
L 2938 2094 
Q 2938 2591 2744 2837 
Q 2550 3084 2163 3084 
Q 1697 3084 1428 2787 
Q 1159 2491 1159 1978 
L 1159 0 
L 581 0 
L 581 3500 
L 1159 3500 
L 1159 2956 
Q 1366 3272 1645 3428 
Q 1925 3584 2291 3584 
Q 2894 3584 3203 3211 
Q 3513 2838 3513 2113 
z
" transform="scale(0.015625)"/>
      <path id="DejaVuSans-74" d="M 1172 4494 
L 1172 3500 
L 2356 3500 
L 2356 3053 
L 1172 3053 
L 1172 1153 
Q 1172 725 1289 603 
Q 1406 481 1766 481 
L 2356 481 
L 2356 0 
L 1766 0 
Q 1100 0 847 248 
Q 594 497 594 1153 
L 594 3053 
L 172 3053 
L 172 3500 
L 594 3500 
L 594 4494 
L 1172 4494 
z
" transform="scale(0.015625)"/>
     </defs>
     <use xlink:href="#DejaVuSans-66"/>
     <use xlink:href="#DejaVuSans-72" x="35.205078"/>
     <use xlink:href="#DejaVuSans-6f" x="74.068359"/>
     <use xlink:href="#DejaVuSans-6e" x="135.25"/>
     <use xlink:href="#DejaVuSans-74" x="198.628906"/>
    </g>
   </g>
   <g id="text_4">
    <!-- 0 (-2) -->
    <g style="fill: #ffffff" transform="translate(114.118546 216.628558) scale(0.1 -0.1)">
     <defs>
      <path id="DejaVuSans-20" transform="scale(0.015625)"/>
      <path id="DejaVuSans-28" d="M 1984 4856 
Q 1566 4138 1362 3434 
Q 1159 2731 1159 2009 
Q 1159 1288 1364 580 
Q 1569 -128 1984 -844 
L 1484 -844 
Q 1016 -109 783 600 
Q 550 1309 550 2009 
Q 550 2706 781 3412 
Q 1013 4119 1484 4856 
L 1984 4856 
z
" transform="scale(0.015625)"/>
      <path id="DejaVuSans-2d" d="M 313 2009 
L 1997 2009 
L 1997 1497 
L 313 1497 
L 313 2009 
z
" transform="scale(0.015625)"/>
      <path id="DejaVuSans-32" d="M 1228 531 
L 3431 531 
L 3431 0 
L 469 0 
L 469 531 
Q 828 903 1448 1529 
Q 2069 2156 2228 2338 
Q 2531 2678 2651 2914 
Q 2772 3150 2772 3378 
Q 2772 3750 2511 3984 
Q 2250 4219 1831 4219 
Q 1534 4219 1204 4116 
Q 875 4013 500 3803 
L 500 4441 
Q 881 4594 1212 4672 
Q 1544 4750 1819 4750 
Q 2544 4750 2975 4387 
Q 3406 4025 3406 3419 
Q 3406 3131 3298 2873 
Q 3191 2616 2906 2266 
Q 2828 2175 2409 1742 
Q 1991 1309 1228 531 
z
" transform="scale(0.015625)"/>
      <path id="DejaVuSans-29" d="M 513 4856 
L 1013 4856 
Q 1481 4119 1714 3412 
Q 1947 2706 1947 2009 
Q 1947 1309 1714 600 
Q 1481 -109 1013 -844 
L 513 -844 
Q 928 -128 1133 580 
Q 1338 1288 1338 2009 
Q 1338 2731 1133 3434 
Q 928 4138 513 4856 
z
" transform="scale(0.015625)"/>
     </defs>
     <use xlink:href="#DejaVuSans-30"/>
     <use xlink:href="#DejaVuSans-20" x="63.623047"/>
     <use xlink:href="#DejaVuSans-28" x="95.410156"/>
     <use xlink:href="#DejaVuSans-2d" x="134.423828"/>
     <use xlink:href="#DejaVuSans-32" x="170.507812"/>
     <use xlink:href="#DejaVuSans-29" x="234.130859"/>
    </g>
   </g>
   <g id="text_5">
    <!-- 1 (3) -->
    <g style="fill: #ffffff" transform="translate(198.416834 162.813134) scale(0.1 -0.1)">
     <defs>
      <path id="DejaVuSans-31" d="M 794 531 
L 1825 531 
L 1825 4091 
L 703 3866 
L 703 4441 
L 1819 4666 
L 2450 4666 
L 2450 531 
L 3481 531 
L 3481 0 
L 794 0 
L 794 531 
z
" transform="scale(0.015625)"/>
      <path id="DejaVuSans-33" d="M 2597 2516 
Q 3050 2419 3304 2112 
Q 3559 1806 3559 1356 
Q 3559 666 3084 287 
Q 2609 -91 1734 -91 
Q 1441 -91 1130 -33 
Q 819 25 488 141 
L 488 750 
Q 750 597 1062 519 
Q 1375 441 1716 441 
Q 2309 441 2620 675 
Q 2931 909 2931 1356 
Q 2931 1769 2642 2001 
Q 2353 2234 1838 2234 
L 1294 2234 
L 1294 2753 
L 1863 2753 
Q 2328 2753 2575 2939 
Q 2822 3125 2822 3475 
Q 2822 3834 2567 4026 
Q 2313 4219 1838 4219 
Q 1578 4219 1281 4162 
Q 984 4106 628 3988 
L 628 4550 
Q 988 4650 1302 4700 
Q 1616 4750 1894 4750 
Q 2613 4750 3031 4423 
Q 3450 4097 3450 3541 
Q 3450 3153 3228 2886 
Q 3006 2619 2597 2516 
z
" transform="scale(0.015625)"/>
     </defs>
     <use xlink:href="#DejaVuSans-31"/>
     <use xlink:href="#DejaVuSans-20" x="63.623047"/>
     <use xlink:href="#DejaVuSans-28" x="95.410156"/>
     <use xlink:href="#DejaVuSans-33" x="134.423828"/>
     <use xlink:href="#DejaVuSans-29" x="198.046875"/>
    </g>
   </g>
   <g id="text_6">
    <!-- 2 (4) -->
    <g style="fill: #ffffff" transform="translate(181.952324 102.129657) scale(0.1 -0.1)">
     <defs>
      <path id="DejaVuSans-34" d="M 2419 4116 
L 825 1625 
L 2419 1625 
L 2419 4116 
z
M 2253 4666 
L 3047 4666 
L 3047 1625 
L 3713 1625 
L 3713 1100 
L 3047 1100 
L 3047 0 
L 2419 0 
L 2419 1100 
L 313 1100 
L 313 1709 
L 2253 4666 
z
" transform="scale(0.015625)"/>
     </defs>
     <use xlink:href="#DejaVuSans-32"/>
     <use xlink:href="#DejaVuSans-20" x="63.623047"/>
     <use xlink:href="#DejaVuSans-28" x="95.410156"/>
     <use xlink:href="#DejaVuSans-34" x="134.423828"/>
     <use xlink:href="#DejaVuSans-29" x="198.046875"/>
    </g>
   </g>
   <g id="text_7">
    <!-- 3 (4) -->
    <g style="fill: #ffffff" transform="translate(166.522727 52.642046) scale(0.1 -0.1)">
     <use xlink:href="#DejaVuSans-33"/>
     <use xlink:href="#DejaVuSans-20" x="63.623047"/>
     <use xlink:href="#DejaVuSans-28" x="95.410156"/>
     <use xlink:href="#DejaVuSans-34" x="134.423828"/>
     <use xlink:href="#DejaVuSans-29" x="198.046875"/>
    </g>
   </g>
   <g id="text_8">
    <!-- 4 (5) -->
    <g style="fill: #ffffff" transform="translate(162.477162 19.054447) scale(0.1 -0.1)">
     <defs>
      <path id="DejaVuSans-35" d="M 691 4666 
L 3169 4666 
L 3169 4134 
L 1269 4134 
L 1269 2991 
Q 1406 3038 1543 3061 
Q 1681 3084 1819 3084 
Q 2600 3084 3056 2656 
Q 3513 2228 3513 1497 
Q 3513 744 3044 326 
Q 2575 -91 1722 -91 
Q 1428 -91 1123 -41 
Q 819 9 494 109 
L 494 744 
Q 775 591 1075 516 
Q 1375 441 1709 441 
Q 2250 441 2565 725 
Q 2881 1009 2881 1497 
Q 2881 1984 2565 2268 
Q 2250 2553 1709 2553 
Q 1456 2553 1204 2497 
Q 953 2441 691 2322 
L 691 4666 
z
" transform="scale(0.015625)"/>
     </defs>
     <use xlink:href="#DejaVuSans-34"/>
     <use xlink:href="#DejaVuSans-20" x="63.623047"/>
     <use xlink:href="#DejaVuSans-28" x="95.410156"/>
     <use xlink:href="#DejaVuSans-35" x="134.423828"/>
     <use xlink:href="#DejaVuSans-29" x="198.046875"/>
    </g>
   </g>
   <g id="text_9">
    <!-- 5 (6) -->
    <g style="fill: #ffffff" transform="translate(148.082477 38.341443) scale(0.1 -0.1)">
     <defs>
      <path id="DejaVuSans-36" d="M 2113 2584 
Q 1688 2584 1439 2293 
Q 1191 2003 1191 1497 
Q 1191 994 1439 701 
Q 1688 409 2113 409 
Q 2538 409 2786 701 
Q 3034 994 3034 1497 
Q 3034 2003 2786 2293 
Q 2538 2584 2113 2584 
z
M 3366 4563 
L 3366 3988 
Q 3128 4100 2886 4159 
Q 2644 4219 2406 4219 
Q 1781 4219 1451 3797 
Q 1122 3375 1075 2522 
Q 1259 2794 1537 2939 
Q 1816 3084 2150 3084 
Q 2853 3084 3261 2657 
Q 3669 2231 3669 1497 
Q 3669 778 3244 343 
Q 2819 -91 2113 -91 
Q 1303 -91 875 529 
Q 447 1150 447 2328 
Q 447 3434 972 4092 
Q 1497 4750 2381 4750 
Q 2619 4750 2861 4703 
Q 3103 4656 3366 4563 
z
" transform="scale(0.015625)"/>
     </defs>
     <use xlink:href="#DejaVuSans-35"/>
     <use xlink:href="#DejaVuSans-20" x="63.623047"/>
     <use xlink:href="#DejaVuSans-28" x="95.410156"/>
     <use xlink:href="#DejaVuSans-36" x="134.423828"/>
     <use xlink:href="#DejaVuSans-29" x="198.046875"/>
    </g>
   </g>
   <g id="text_10">
    <!-- 6 (6) -->
    <g style="fill: #ffffff" transform="translate(133.123294 51.795299) scale(0.1 -0.1)">
     <use xlink:href="#DejaVuSans-36"/>
     <use xlink:href="#DejaVuSans-20" x="63.623047"/>
     <use xlink:href="#DejaVuSans-28" x="95.410156"/>
     <use xlink:href="#DejaVuSans-36" x="134.423828"/>
     <use xlink:href="#DejaVuSans-29" x="198.046875"/>
    </g>
   </g>
   <g id="text_11">
    <!-- 7 (-6) -->
    <g style="fill: #ffffff" transform="translate(95.113798 51.795299) scale(0.1 -0.1)">
     <defs>
      <path id="DejaVuSans-37" d="M 525 4666 
L 3525 4666 
L 3525 4397 
L 1831 0 
L 1172 0 
L 2766 4134 
L 525 4134 
L 525 4666 
z
" transform="scale(0.015625)"/>
     </defs>
     <use xlink:href="#DejaVuSans-37"/>
     <use xlink:href="#DejaVuSans-20" x="63.623047"/>
     <use xlink:href="#DejaVuSans-28" x="95.410156"/>
     <use xlink:href="#DejaVuSans-2d" x="134.423828"/>
     <use xlink:href="#DejaVuSans-36" x="170.507812"/>
     <use xlink:href="#DejaVuSans-29" x="234.130859"/>
    </g>
   </g>
   <g id="text_12">
    <!-- 8 (-6) -->
    <g style="fill: #ffffff" transform="translate(80.154615 38.341443) scale(0.1 -0.1)">
     <defs>
      <path id="DejaVuSans-38" d="M 2034 2216 
Q 1584 2216 1326 1975 
Q 1069 1734 1069 1313 
Q 1069 891 1326 650 
Q 1584 409 2034 409 
Q 2484 409 2743 651 
Q 3003 894 3003 1313 
Q 3003 1734 2745 1975 
Q 2488 2216 2034 2216 
z
M 1403 2484 
Q 997 2584 770 2862 
Q 544 3141 544 3541 
Q 544 4100 942 4425 
Q 1341 4750 2034 4750 
Q 2731 4750 3128 4425 
Q 3525 4100 3525 3541 
Q 3525 3141 3298 2862 
Q 3072 2584 2669 2484 
Q 3125 2378 3379 2068 
Q 3634 1759 3634 1313 
Q 3634 634 3220 271 
Q 2806 -91 2034 -91 
Q 1263 -91 848 271 
Q 434 634 434 1313 
Q 434 1759 690 2068 
Q 947 2378 1403 2484 
z
M 1172 3481 
Q 1172 3119 1398 2916 
Q 1625 2713 2034 2713 
Q 2441 2713 2670 2916 
Q 2900 3119 2900 3481 
Q 2900 3844 2670 4047 
Q 2441 4250 2034 4250 
Q 1625 4250 1398 4047 
Q 1172 3844 1172 3481 
z
" transform="scale(0.015625)"/>
     </defs>
     <use xlink:href="#DejaVuSans-38"/>
     <use xlink:href="#DejaVuSans-20" x="63.623047"/>
     <use xlink:href="#DejaVuSans-28" x="95.410156"/>
     <use xlink:href="#DejaVuSans-2d" x="134.423828"/>
     <use xlink:href="#DejaVuSans-36" x="170.507812"/>
     <use xlink:href="#DejaVuSans-29" x="234.130859"/>
    </g>
   </g>
   <g id="text_13">
    <!-- 9 (-5) -->
    <g style="fill: #ffffff" transform="translate(65.75993 19.054447) scale(0.1 -0.1)">
     <defs>
      <path id="DejaVuSans-39" d="M 703 97 
L 703 672 
Q 941 559 1184 500 
Q 1428 441 1663 441 
Q 2288 441 2617 861 
Q 2947 1281 2994 2138 
Q 2813 1869 2534 1725 
Q 2256 1581 1919 1581 
Q 1219 1581 811 2004 
Q 403 2428 403 3163 
Q 403 3881 828 4315 
Q 1253 4750 1959 4750 
Q 2769 4750 3195 4129 
Q 3622 3509 3622 2328 
Q 3622 1225 3098 567 
Q 2575 -91 1691 -91 
Q 1453 -91 1209 -44 
Q 966 3 703 97 
z
M 1959 2075 
Q 2384 2075 2632 2365 
Q 2881 2656 2881 3163 
Q 2881 3666 2632 3958 
Q 2384 4250 1959 4250 
Q 1534 4250 1286 3958 
Q 1038 3666 1038 3163 
Q 1038 2656 1286 2365 
Q 1534 2075 1959 2075 
z
" transform="scale(0.015625)"/>
     </defs>
     <use xlink:href="#DejaVuSans-39"/>
     <use xlink:href="#DejaVuSans-20" x="63.623047"/>
     <use xlink:href="#DejaVuSans-28" x="95.410156"/>
     <use xlink:href="#DejaVuSans-2d" x="134.423828"/>
     <use xlink:href="#DejaVuSans-35" x="170.507812"/>
     <use xlink:href="#DejaVuSans-29" x="234.130859"/>
    </g>
   </g>
   <g id="text_14">
    <!-- 10 (-4) -->
    <g style="fill: #ffffff" transform="translate(61.714365 52.642046) scale(0.1 -0.1)">
     <use xlink:href="#DejaVuSans-31"/>
     <use xlink:href="#DejaVuSans-30" x="63.623047"/>
     <use xlink:href="#DejaVuSans-20" x="127.246094"/>
     <use xlink:href="#DejaVuSans-28" x="159.033203"/>
     <use xlink:href="#DejaVuSans-2d" x="198.046875"/>
     <use xlink:href="#DejaVuSans-34" x="234.130859"/>
     <use xlink:href="#DejaVuSans-29" x="297.753906"/>
    </g>
   </g>
   <g id="text_15">
    <!-- 11 (-4) -->
    <g style="fill: #ffffff" transform="translate(46.284768 102.129657) scale(0.1 -0.1)">
     <use xlink:href="#DejaVuSans-31"/>
     <use xlink:href="#DejaVuSans-31" x="63.623047"/>
     <use xlink:href="#DejaVuSans-20" x="127.246094"/>
     <use xlink:href="#DejaVuSans-28" x="159.033203"/>
     <use xlink:href="#DejaVuSans-2d" x="198.046875"/>
     <use xlink:href="#DejaVuSans-34" x="234.130859"/>
     <use xlink:href="#DejaVuSans-29" x="297.753906"/>
    </g>
   </g>
   <g id="text_16">
    <!-- 12 (-3) -->
    <g style="fill: #ffffff" transform="translate(29.820258 162.813134) scale(0.1 -0.1)">
     <use xlink:href="#DejaVuSans-31"/>
     <use xlink:href="#DejaVuSans-32" x="63.623047"/>
     <use xlink:href="#DejaVuSans-20" x="127.246094"/>
     <use xlink:href="#DejaVuSans-28" x="159.033203"/>
     <use xlink:href="#DejaVuSans-2d" x="198.046875"/>
     <use xlink:href="#DejaVuSans-33" x="234.130859"/>
     <use xlink:href="#DejaVuSans-29" x="297.753906"/>
    </g>
   </g>
  </g>
  <g id="axes_2">
   <g id="patch_7">
    <path d="M 245.5625 226.601347 
L 432.674592 226.601347 
L 432.674592 7.2 
L 245.5625 7.2 
z
"/>
   </g>
   <g id="matplotlib.axis_3">
    <g id="xtick_2">
     <g id="line2d_18">
      <path d="M 339.118546 226.601347 
L 339.118546 7.2 
" clip-path="url(#p800e752c0b)" style="fill: none; stroke: #ffffff; stroke-width: 0.8; stroke-linecap: square"/>
     </g>
     <g id="line2d_19">
      <g>
       <use xlink:href="#m413d625baa" x="339.118546" y="226.601347" style="fill: #ffffff; stroke: #ffffff; stroke-width: 0.8"/>
      </g>
     </g>
     <g id="text_17">
      <!-- 0 -->
      <g style="fill: #ffffff" transform="translate(335.937296 241.199784) scale(0.1 -0.1)">
       <use xlink:href="#DejaVuSans-30"/>
      </g>
     </g>
    </g>
   </g>
   <g id="matplotlib.axis_4">
    <g id="ytick_2">
     <g id="line2d_20">
      <path d="M 245.5625 116.900673 
L 432.674592 116.900673 
" clip-path="url(#p800e752c0b)" style="fill: none; stroke: #ffffff; stroke-width: 0.8; stroke-linecap: square"/>
     </g>
     <g id="line2d_21">
      <g>
       <use xlink:href="#m6bd027799c" x="245.5625" y="116.900673" style="fill: #ffffff; stroke: #ffffff; stroke-width: 0.8"/>
      </g>
     </g>
     <g id="text_18">
      <!-- 0 -->
      <g style="fill: #ffffff" transform="translate(232.2 120.699892) scale(0.1 -0.1)">
       <use xlink:href="#DejaVuSans-30"/>
      </g>
     </g>
    </g>
   </g>
   <g id="line2d_22">
    <path d="M 254.067595 216.628558 
L 288.087975 216.628558 
L 322.108356 216.628558 
L 356.128736 216.628558 
L 390.149117 216.628558 
L 424.169497 216.628558 
" clip-path="url(#p800e752c0b)" style="fill: none; stroke: #f23c3c; stroke-width: 3; stroke-linecap: square"/>
   </g>
   <g id="line2d_23">
    <path d="M 424.169497 216.628558 
L 423.868432 195.102389 
L 423.567366 173.576219 
L 423.266301 152.050049 
L 422.965236 130.523879 
L 422.66417 108.997709 
" clip-path="url(#p800e752c0b)" style="fill: none; stroke: #f2813c; stroke-width: 3; stroke-linecap: square"/>
   </g>
   <g id="line2d_24">
    <path d="M 422.66417 108.997709 
L 415.814935 107.898821 
L 409.718362 104.602155 
L 404.374453 99.107713 
L 399.783207 91.415495 
L 395.944624 81.525499 
" clip-path="url(#p800e752c0b)" style="fill: none; stroke: #f2c53c; stroke-width: 3; stroke-linecap: square"/>
   </g>
   <g id="line2d_25">
    <path d="M 395.944624 81.525499 
L 393.15977 70.310816 
L 391.729709 58.644535 
L 391.654443 46.526657 
L 392.933971 33.95718 
L 395.568292 20.936105 
" clip-path="url(#p800e752c0b)" style="fill: none; stroke: #a7f23c; stroke-width: 3; stroke-linecap: square"/>
   </g>
   <g id="line2d_26">
    <path d="M 395.568292 20.936105 
L 392.33184 20.183442 
L 389.095388 19.430778 
L 385.858936 18.678115 
L 382.622484 17.925452 
L 379.386032 17.172788 
" clip-path="url(#p800e752c0b)" style="fill: none; stroke: #3cf2d2; stroke-width: 3; stroke-linecap: square"/>
   </g>
   <g id="line2d_27">
    <path d="M 379.386032 17.172788 
L 376.932349 20.830732 
L 371.67876 23.675799 
L 363.625263 25.70799 
L 352.771858 26.927305 
L 339.118546 27.333743 
" clip-path="url(#p800e752c0b)" style="fill: none; stroke: #3c96f2; stroke-width: 3; stroke-linecap: square"/>
   </g>
   <g id="line2d_28">
    <path d="M 339.118546 27.333743 
L 325.465234 26.927305 
L 314.61183 25.70799 
L 306.558332 23.675799 
L 301.304743 20.830732 
L 298.85106 17.172788 
" clip-path="url(#p800e752c0b)" style="fill: none; stroke: #8d3cf2; stroke-width: 3; stroke-linecap: square"/>
   </g>
   <g id="line2d_29">
    <path d="M 298.85106 17.172788 
L 295.614608 17.925452 
L 292.378156 18.678115 
L 289.141704 19.430778 
L 285.905252 20.183442 
L 282.6688 20.936105 
" clip-path="url(#p800e752c0b)" style="fill: none; stroke: #f23c3c; stroke-width: 3; stroke-linecap: square"/>
   </g>
   <g id="line2d_30">
    <path d="M 282.6688 20.936105 
L 285.303121 33.95718 
L 286.582649 46.526657 
L 286.507383 58.644535 
L 285.077322 70.310816 
L 282.292468 81.525499 
" clip-path="url(#p800e752c0b)" style="fill: none; stroke: #f2813c; stroke-width: 3; stroke-linecap: square"/>
   </g>
   <g id="line2d_31">
    <path d="M 282.292468 81.525499 
L 278.453885 91.415495 
L 273.862639 99.107713 
L 268.51873 104.602155 
L 262.422158 107.898821 
L 255.572922 108.997709 
" clip-path="url(#p800e752c0b)" style="fill: none; stroke: #f2c53c; stroke-width: 3; stroke-linecap: square"/>
   </g>
   <g id="line2d_32">
    <path d="M 255.572922 108.997709 
L 255.271856 130.523879 
L 254.970791 152.050049 
L 254.669726 173.576219 
L 254.36866 195.102389 
L 254.067595 216.628558 
" clip-path="url(#p800e752c0b)" style="fill: none; stroke: #a7f23c; stroke-width: 3; stroke-linecap: square"/>
   </g>
   <g id="patch_8">
    <path d="M 245.5625 226.601347 
L 245.5625 7.2 
" style="fill: none; stroke: #ffffff; stroke-width: 0.8; stroke-linejoin: miter; stroke-linecap: square"/>
   </g>
   <g id="patch_9">
    <path d="M 432.674592 226.601347 
L 432.674592 7.2 
" style="fill: none; stroke: #ffffff; stroke-width: 0.8; stroke-linejoin: miter; stroke-linecap: square"/>
   </g>
   <g id="patch_10">
    <path d="M 245.5625 226.601347 
L 432.674592 226.601347 
" style="fill: none; stroke: #ffffff; stroke-width: 0.8; stroke-linejoin: miter; stroke-linecap: square"/>
   </g>
   <g id="patch_11">
    <path d="M 245.5625 7.2 
L 432.674592 7.2 
" style="fill: none; stroke: #ffffff; stroke-width: 0.8; stroke-linejoin: miter; stroke-linecap: square"/>
   </g>
   <g id="text_19">
    <!-- back -->
    <g style="fill: #ffffff" transform="translate(339.118546 116.900673) scale(0.1 -0.1)">
     <defs>
      <path id="DejaVuSans-62" d="M 3116 1747 
Q 3116 2381 2855 2742 
Q 2594 3103 2138 3103 
Q 1681 3103 1420 2742 
Q 1159 2381 1159 1747 
Q 1159 1113 1420 752 
Q 1681 391 2138 391 
Q 2594 391 2855 752 
Q 3116 1113 3116 1747 
z
M 1159 2969 
Q 1341 3281 1617 3432 
Q 1894 3584 2278 3584 
Q 2916 3584 3314 3078 
Q 3713 2572 3713 1747 
Q 3713 922 3314 415 
Q 2916 -91 2278 -91 
Q 1894 -91 1617 61 
Q 1341 213 1159 525 
L 1159 0 
L 581 0 
L 581 4863 
L 1159 4863 
L 1159 2969 
z
" transform="scale(0.015625)"/>
      <path id="DejaVuSans-61" d="M 2194 1759 
Q 1497 1759 1228 1600 
Q 959 1441 959 1056 
Q 959 750 1161 570 
Q 1363 391 1709 391 
Q 2188 391 2477 730 
Q 2766 1069 2766 1631 
L 2766 1759 
L 2194 1759 
z
M 3341 1997 
L 3341 0 
L 2766 0 
L 2766 531 
Q 2569 213 2275 61 
Q 1981 -91 1556 -91 
Q 1019 -91 701 211 
Q 384 513 384 1019 
Q 384 1609 779 1909 
Q 1175 2209 1959 2209 
L 2766 2209 
L 2766 2266 
Q 2766 2663 2505 2880 
Q 2244 3097 1772 3097 
Q 1472 3097 1187 3025 
Q 903 2953 641 2809 
L 641 3341 
Q 956 3463 1253 3523 
Q 1550 3584 1831 3584 
Q 2591 3584 2966 3190 
Q 3341 2797 3341 1997 
z
" transform="scale(0.015625)"/>
      <path id="DejaVuSans-63" d="M 3122 3366 
L 3122 2828 
Q 2878 2963 2633 3030 
Q 2388 3097 2138 3097 
Q 1578 3097 1268 2742 
Q 959 2388 959 1747 
Q 959 1106 1268 751 
Q 1578 397 2138 397 
Q 2388 397 2633 464 
Q 2878 531 3122 666 
L 3122 134 
Q 2881 22 2623 -34 
Q 2366 -91 2075 -91 
Q 1284 -91 818 406 
Q 353 903 353 1747 
Q 353 2603 823 3093 
Q 1294 3584 2113 3584 
Q 2378 3584 2631 3529 
Q 2884 3475 3122 3366 
z
" transform="scale(0.015625)"/>
      <path id="DejaVuSans-6b" d="M 581 4863 
L 1159 4863 
L 1159 1991 
L 2875 3500 
L 3609 3500 
L 1753 1863 
L 3688 0 
L 2938 0 
L 1159 1709 
L 1159 0 
L 581 0 
L 581 4863 
z
" transform="scale(0.015625)"/>
     </defs>
     <use xlink:href="#DejaVuSans-62"/>
     <use xlink:href="#DejaVuSans-61" x="63.476562"/>
     <use xlink:href="#DejaVuSans-63" x="124.755859"/>
     <use xlink:href="#DejaVuSans-6b" x="179.736328"/>
    </g>
   </g>
   <g id="text_20">
    <!-- 0 (-2) -->
    <g style="fill: #ffffff" transform="translate(339.118546 216.628558) scale(0.1 -0.1)">
     <use xlink:href="#DejaVuSans-30"/>
     <use xlink:href="#DejaVuSans-20" x="63.623047"/>
     <use xlink:href="#DejaVuSans-28" x="95.410156"/>
     <use xlink:href="#DejaVuSans-2d" x="134.423828"/>
     <use xlink:href="#DejaVuSans-32" x="170.507812"/>
     <use xlink:href="#DejaVuSans-29" x="234.130859"/>
    </g>
   </g>
   <g id="text_21">
    <!-- 1 (3) -->
    <g style="fill: #ffffff" transform="translate(423.416834 162.813134) scale(0.1 -0.1)">
     <use xlink:href="#DejaVuSans-31"/>
     <use xlink:href="#DejaVuSans-20" x="63.623047"/>
     <use xlink:href="#DejaVuSans-28" x="95.410156"/>
     <use xlink:href="#DejaVuSans-33" x="134.423828"/>
     <use xlink:href="#DejaVuSans-29" x="198.046875"/>
    </g>
   </g>
   <g id="text_22">
    <!-- 2 (4) -->
    <g style="fill: #ffffff" transform="translate(406.952324 102.129657) scale(0.1 -0.1)">
     <use xlink:href="#DejaVuSans-32"/>
     <use xlink:href="#DejaVuSans-20" x="63.623047"/>
     <use xlink:href="#DejaVuSans-28" x="95.410156"/>
     <use xlink:href="#DejaVuSans-34" x="134.423828"/>
     <use xlink:href="#DejaVuSans-29" x="198.046875"/>
    </g>
   </g>
   <g id="text_23">
    <!-- 3 (4) -->
    <g style="fill: #ffffff" transform="translate(391.522727 52.642046) scale(0.1 -0.1)">
     <use xlink:href="#DejaVuSans-33"/>
     <use xlink:href="#DejaVuSans-20" x="63.623047"/>
     <use xlink:href="#DejaVuSans-28" x="95.410156"/>
     <use xlink:href="#DejaVuSans-34" x="134.423828"/>
     <use xlink:href="#DejaVuSans-29" x="198.046875"/>
    </g>
   </g>
   <g id="text_24">
    <!-- 4 (5) -->
    <g style="fill: #ffffff" transform="translate(387.477162 19.054447) scale(0.1 -0.1)">
     <use xlink:href="#DejaVuSans-34"/>
     <use xlink:href="#DejaVuSans-20" x="63.623047"/>
     <use xlink:href="#DejaVuSans-28" x="95.410156"/>
     <use xlink:href="#DejaVuSans-35" x="134.423828"/>
     <use xlink:href="#DejaVuSans-29" x="198.046875"/>
    </g>
   </g>
   <g id="text_25">
    <!-- 5 (7) -->
    <g style="fill: #ffffff" transform="translate(368.002 24.793504) scale(0.1 -0.1)">
     <use xlink:href="#DejaVuSans-35"/>
     <use xlink:href="#DejaVuSans-20" x="63.623047"/>
     <use xlink:href="#DejaVuSans-28" x="95.410156"/>
     <use xlink:href="#DejaVuSans-37" x="134.423828"/>
     <use xlink:href="#DejaVuSans-29" x="198.046875"/>
    </g>
   </g>
   <g id="text_26">
    <!-- 6 (-7) -->
    <g style="fill: #ffffff" transform="translate(310.235093 24.793504) scale(0.1 -0.1)">
     <use xlink:href="#DejaVuSans-36"/>
     <use xlink:href="#DejaVuSans-20" x="63.623047"/>
     <use xlink:href="#DejaVuSans-28" x="95.410156"/>
     <use xlink:href="#DejaVuSans-2d" x="134.423828"/>
     <use xlink:href="#DejaVuSans-37" x="170.507812"/>
     <use xlink:href="#DejaVuSans-29" x="234.130859"/>
    </g>
   </g>
   <g id="text_27">
    <!-- 7 (-5) -->
    <g style="fill: #ffffff" transform="translate(290.75993 19.054447) scale(0.1 -0.1)">
     <use xlink:href="#DejaVuSans-37"/>
     <use xlink:href="#DejaVuSans-20" x="63.623047"/>
     <use xlink:href="#DejaVuSans-28" x="95.410156"/>
     <use xlink:href="#DejaVuSans-2d" x="134.423828"/>
     <use xlink:href="#DejaVuSans-35" x="170.507812"/>
     <use xlink:href="#DejaVuSans-29" x="234.130859"/>
    </g>
   </g>
   <g id="text_28">
    <!-- 8 (-4) -->
    <g style="fill: #ffffff" transform="translate(286.714365 52.642046) scale(0.1 -0.1)">
     <use xlink:href="#DejaVuSans-38"/>
     <use xlink:href="#DejaVuSans-20" x="63.623047"/>
     <use xlink:href="#DejaVuSans-28" x="95.410156"/>
     <use xlink:href="#DejaVuSans-2d" x="134.423828"/>
     <use xlink:href="#DejaVuSans-34" x="170.507812"/>
     <use xlink:href="#DejaVuSans-29" x="234.130859"/>
    </g>
   </g>
   <g id="text_29">
    <!-- 9 (-4) -->
    <g style="fill: #ffffff" transform="translate(271.284768 102.129657) scale(0.1 -0.1)">
     <use xlink:href="#DejaVuSans-39"/>
     <use xlink:href="#DejaVuSans-20" x="63.623047"/>
     <use xlink:href="#DejaVuSans-28" x="95.410156"/>
     <use xlink:href="#DejaVuSans-2d" x="134.423828"/>
     <use xlink:href="#DejaVuSans-34" x="170.507812"/>
     <use xlink:href="#DejaVuSans-29" x="234.130859"/>
    </g>
   </g>
   <g id="text_30">
    <!-- 10 (-3) -->
    <g style="fill: #ffffff" transform="translate(254.820258 162.813134) scale(0.1 -0.1)">
     <use xlink:href="#DejaVuSans-31"/>
     <use xlink:href="#DejaVuSans-30" x="63.623047"/>
     <use xlink:href="#DejaVuSans-20" x="127.246094"/>
     <use xlink:href="#DejaVuSans-28" x="159.033203"/>
     <use xlink:href="#DejaVuSans-2d" x="198.046875"/>
     <use xlink:href="#DejaVuSans-33" x="234.130859"/>
     <use xlink:href="#DejaVuSans-29" x="297.753906"/>
    </g>
   </g>
  </g>
 </g>
 <defs>
  <clipPath id="p85bd35efb7">
   <rect x="20.5625" y="7.2" width="187.112092" height="219.401347"/>
  </clipPath>
  <clipPath id="p800e752c0b">
   <rect x="245.5625" y="7.2" width="187.112092" height="219.401347"/>
  </clipPath>
 </defs>
</svg>
