<svg xmlns="http://www.w3.org/2000/svg" version="1.1" viewBox="-10,-10,130.4,73.0" >
 <g class="Panel" transform="translate(0,0)" >
 <path id="front" d="M 0.0 53.0 L 45.2 53.0 L 44.8 24.400000000000002 Q 40.0 24.400000000000002 37.7 17.1  Q 35.400000000000006 9.799999999999997 37.6 1.0   L 33.3 0.0 Q 31.5 7.100000000000001 30.200000000000003 8.299999999999997  Q 28.900000000000002 9.5 22.6 9.5  Q 16.3 9.5 15.000000000000002 8.299999999999997  Q 13.700000000000001 7.100000000000001 11.900000000000002 0.0   L 7.600000000000001 1.0 Q 9.8 9.799999999999997 7.500000000000002 17.1  Q 5.200000000000003 24.400000000000002 0.40000000000000213 24.400000000000002 Z" stroke="gray" stroke-linecap="round"  fill="gray" fill-opacity="0.1" stroke-width="0.5" />
  <a class="annotation" href="https://yqnn.github.io/svg-path-editor/#P=M_0.0_53.0_L_45.2_53.0_L_44.8_24.400000000000002_Q_40.0_24.400000000000002_37.7_17.1__Q_35.400000000000006_9.799999999999997_37.6_1.0___L_33.3_0.0_Q_31.5_7.100000000000001_30.200000000000003_8.299999999999997__Q_28.900000000000002_9.5_22.6_9.5__Q_16.3_9.5_15.000000000000002_8.299999999999997__Q_13.700000000000001_7.100000000000001_11.900000000000002_0.0___L_7.600000000000001_1.0_Q_9.8_9.799999999999997_7.500000000000002_17.1__Q_5.200000000000003_24.400000000000002_0.40000000000000213_24.400000000000002_Z">
   <text x="22.6" y="26.5" font-size="5" font-family="monospace" text-anchor="middle" alignment-baseline="middle"  fill="black" > front </text> </a> </g>
<g class="Panel" transform="translate(55.2,0)" >
 <path id="back" d="M 0.0 53.0 L 45.2 53.0 L 44.8 24.400000000000002 Q 40.0 24.400000000000002 37.7 17.1  Q 35.400000000000006 9.799999999999997 37.6 1.0   L 33.3 0.0 Q 32.6 2.6999999999999993 22.6 2.6999999999999993  Q 12.600000000000001 2.6999999999999993 11.900000000000002 0.0   L 7.6 1.0 Q 9.8 9.799999999999997 7.5 17.1  Q 5.200000000000003 24.400000000000002 0.40000000000000213 24.400000000000002 Z" stroke="gray" stroke-linecap="round"  fill="gray" fill-opacity="0.1" stroke-width="0.5" />
  <a class="annotation" href="https://yqnn.github.io/svg-path-editor/#P=M_0.0_53.0_L_45.2_53.0_L_44.8_24.400000000000002_Q_40.0_24.400000000000002_37.7_17.1__Q_35.400000000000006_9.799999999999997_37.6_1.0___L_33.3_0.0_Q_32.6_2.6999999999999993_22.6_2.6999999999999993__Q_12.600000000000001_2.6999999999999993_11.900000000000002_0.0___L_7.6_1.0_Q_9.8_9.799999999999997_7.5_17.1__Q_5.200000000000003_24.400000000000002_0.40000000000000213_24.400000000000002_Z">
   <text x="22.6" y="26.5" font-size="5" font-family="monospace" text-anchor="middle" alignment-baseline="middle"  fill="black" > back </text> </a> </g>
 </svg>
